<?xml version="1.0" standalone="no"?>
<!DOCTYPE svg PUBLIC "-//W3C//DTD SVG 20010904//EN"
 "http://www.w3.org/TR/2001/REC-SVG-20010904/DTD/svg10.dtd">
<svg version="1.0" xmlns="http://www.w3.org/2000/svg"
 width="512.000000pt" height="512.000000pt" viewBox="0 0 512.000000 512.000000"
 preserveAspectRatio="xMidYMid meet">
<metadata>
Created by potrace 1.14, written by Peter Selinger 2001-2017
</metadata>
<g transform="translate(0.000000,512.000000) scale(0.100000,-0.100000)"
fill="#000000" stroke="none">
<path d="M0 4844 c0 -248 2 -276 16 -270 9 3 60 6 115 6 92 0 99 1 99 20 0 39
42 129 80 173 41 46 107 85 164 96 l31 7 5 122 5 122 -257 0 -258 0 0 -276z"/>
<path d="M558 5018 c3 -133 7 -148 35 -148 42 0 126 -51 172 -103 41 -47 53
-73 81 -175 3 -10 48 -12 200 -10 l197 3 11 46 c27 106 117 203 212 229 27 7
51 15 54 17 3 3 7 58 10 124 l5 119 -490 0 -490 0 3 -102z"/>
<path d="M1580 4999 l5 -122 45 -11 c61 -16 111 -48 157 -100 31 -35 47 -45
83 -50 76 -12 162 -44 245 -91 53 -30 90 -45 114 -45 35 0 37 1 49 52 25 109
113 202 216 230 l51 15 5 121 5 122 -490 0 -490 0 5 -121z"/>
<path d="M2598 5108 c8 -8 12 -50 12 -125 0 -110 1 -113 23 -113 35 -1 101
-34 146 -76 51 -45 86 -103 102 -166 l11 -48 198 0 197 0 12 54 c24 106 106
194 214 227 l52 16 5 122 5 121 -494 0 c-385 0 -492 -3 -483 -12z"/>
<path d="M3618 5018 c3 -132 7 -148 35 -148 57 -1 164 -76 208 -146 18 -29 26
-34 58 -34 37 0 38 -1 52 -52 l14 -53 159 0 159 0 12 47 c16 64 76 152 126
185 22 14 64 34 92 44 l52 18 5 120 5 121 -490 0 -490 0 3 -102z"/>
<path d="M4638 5018 c3 -132 7 -148 35 -148 33 -1 98 -33 141 -71 50 -43 81
-93 101 -163 l16 -56 95 0 94 0 0 270 0 270 -242 0 -243 0 3 -102z"/>
<path d="M452 4807 c-48 -15 -117 -80 -143 -135 -30 -61 -32 -166 -6 -234 22
-58 98 -129 155 -146 57 -17 131 -14 177 7 52 24 117 95 140 154 50 130 -23
300 -151 353 -38 16 -124 17 -172 1z"/>
<path d="M1455 4796 c-28 -13 -63 -38 -78 -56 -32 -38 -71 -110 -63 -117 3 -3
43 11 90 31 89 39 193 65 261 67 22 0 48 4 59 8 17 6 15 10 -15 36 -73 61
-166 73 -254 31z"/>
<path d="M2491 4806 c-53 -19 -111 -75 -137 -130 -35 -75 -40 -126 -18 -204
14 -56 26 -75 68 -117 122 -121 302 -96 389 54 29 51 32 63 32 141 0 74 -3 91
-27 131 -32 54 -87 106 -134 125 -40 17 -127 17 -173 0z"/>
<path d="M3494 4796 c-28 -13 -65 -41 -82 -62 l-32 -39 211 -3 c117 -1 214 0
217 3 10 10 -72 87 -113 106 -57 26 -138 25 -201 -5z"/>
<path d="M4514 4796 c-95 -44 -160 -160 -151 -267 12 -142 122 -249 257 -249
229 0 337 310 164 470 -25 23 -61 48 -79 56 -52 22 -132 18 -191 -10z"/>
<path d="M0 3886 c0 -578 1 -638 16 -632 9 3 60 6 115 6 92 0 99 1 99 20 0 39
41 129 79 172 39 44 111 86 165 98 l31 6 3 331 2 332 -42 12 c-67 17 -110 44
-155 91 -38 43 -83 137 -83 178 0 17 -10 19 -115 22 l-115 3 0 -639z"/>
<path d="M846 4508 c-39 -143 -79 -201 -170 -248 -33 -16 -67 -30 -76 -30 -38
0 -40 -14 -40 -347 0 -250 3 -324 13 -327 112 -32 160 -62 210 -132 18 -24 39
-70 48 -102 13 -46 20 -58 39 -60 26 -4 26 -12 -7 128 -14 60 -18 119 -17 290
0 189 2 226 22 303 46 185 126 341 238 465 l66 72 -161 0 c-121 0 -162 -3
-165 -12z"/>
<path d="M2880 4469 c-26 -109 -114 -202 -223 -234 l-42 -12 -3 -350 c-2 -295
-5 -353 -17 -363 -8 -7 -21 -10 -30 -6 -13 4 -15 56 -17 362 l-3 357 -45 11
c-26 7 -62 22 -82 34 -43 27 -103 91 -113 121 -3 12 -10 21 -14 21 -4 0 -56
-63 -116 -140 -59 -77 -111 -140 -115 -140 -4 0 -15 10 -26 21 -53 60 -182
119 -257 119 -41 0 -170 -39 -188 -57 -5 -5 -8 -148 -7 -333 l3 -324 31 -7
c94 -19 176 -88 222 -188 22 -46 26 -70 26 -138 0 -55 4 -83 11 -83 19 0 128
69 170 108 l40 37 103 -3 103 -3 -2 -121 c-1 -117 0 -123 25 -154 14 -18 26
-36 26 -39 0 -4 -11 -21 -25 -39 -23 -30 -25 -42 -25 -129 l0 -97 -110 0
c-101 0 -110 2 -110 19 0 17 -6 16 -87 -12 -84 -30 -95 -31 -253 -32 -144 0
-175 3 -242 23 -252 75 -424 216 -537 440 -31 62 -33 63 -68 60 -35 -3 -37 -5
-48 -53 -16 -72 -37 -106 -98 -161 -36 -33 -73 -56 -113 -69 l-59 -20 0 -329
0 -329 42 -12 c119 -35 201 -122 228 -240 7 -29 18 -51 26 -53 9 -2 33 26 62
71 102 161 254 259 467 302 120 25 301 16 430 -20 158 -44 353 -147 428 -227
l22 -25 -136 -174 c-75 -96 -138 -175 -139 -177 -2 -2 -32 17 -66 42 -35 25
-68 46 -74 46 -7 0 -26 -22 -43 -49 -43 -66 -132 -131 -180 -131 -10 0 -27 -6
-38 -14 -17 -13 -17 -16 -4 -30 8 -8 78 -43 155 -78 78 -36 168 -83 201 -105
123 -84 216 -214 244 -344 19 -84 9 -259 -19 -329 -31 -80 -30 -81 36 -78 l57
3 8 39 c13 61 66 151 111 187 22 18 68 43 101 55 l61 22 5 353 c5 336 6 354
24 357 10 2 22 -2 27 -10 5 -7 9 -169 9 -360 l0 -346 33 -7 c91 -20 165 -82
212 -179 l35 -71 0 598 c0 391 -3 597 -10 597 -6 0 -10 45 -10 115 0 70 4 115
10 115 6 0 10 28 10 65 0 37 -4 65 -10 65 -6 0 -10 45 -10 115 l0 115 105 0
105 0 0 -85 0 -85 253 0 c286 0 452 -12 565 -40 155 -40 282 -123 356 -235 41
-60 56 -69 56 -29 0 40 47 128 92 174 46 45 82 67 143 85 l40 12 3 331 2 330
-32 7 c-18 4 -45 14 -60 21 -15 8 -29 11 -31 6 -3 -4 8 -50 24 -102 16 -52 29
-103 29 -112 0 -17 -19 -18 -255 -18 -228 0 -256 2 -262 17 -3 9 -25 102 -48
206 -22 105 -46 192 -52 194 -7 3 -20 -15 -31 -39 -24 -54 -88 -117 -150 -149
-38 -19 -62 -24 -127 -24 -87 0 -142 21 -197 73 -15 14 -31 22 -35 19 -3 -4
-20 -71 -38 -150 l-31 -142 -244 -3 c-134 -1 -247 1 -252 6 -4 4 104 399 242
877 137 478 250 884 250 902 l0 33 -199 0 -199 0 -12 -51z m-252 -1301 l-3
-113 -105 0 -105 0 -3 113 -3 112 111 0 111 0 -3 -112z m0 -360 l3 -108 -111
0 -110 0 0 110 0 111 108 -3 107 -3 3 -107z m112 -483 l0 -115 -110 0 -110 0
0 115 0 115 110 0 110 0 0 -115z m0 -360 l0 -115 -110 0 -110 0 0 115 0 115
110 0 110 0 0 -115z"/>
<path d="M4010 4511 c0 -11 320 -1124 324 -1129 2 -1 20 20 39 47 38 53 101
95 170 116 l42 12 0 333 0 333 -45 11 c-110 28 -204 128 -228 243 l-8 38 -147
3 c-85 1 -147 -1 -147 -7z"/>
<path d="M4924 4493 c-27 -127 -109 -224 -214 -254 -25 -7 -51 -19 -57 -28
-10 -11 -13 -92 -13 -325 0 -171 4 -316 8 -321 4 -6 32 -18 63 -28 99 -30 177
-118 208 -235 l12 -42 94 0 95 0 0 630 0 630 -95 0 -95 0 -6 -27z"/>
<path d="M3633 4218 c-9 -14 -18 -608 -9 -643 4 -16 18 -23 64 -33 32 -7 75
-12 96 -12 37 0 38 1 31 28 -4 15 -33 149 -66 297 -32 149 -65 292 -72 319
-12 51 -29 67 -44 44z"/>
<path d="M1467 4122 c-45 -60 -83 -143 -104 -231 -18 -77 -22 -330 -4 -373
l10 -28 36 21 c19 12 54 27 78 34 l42 12 3 307 c2 247 0 306 -11 306 -7 0 -29
-22 -50 -48z"/>
<path d="M3558 3880 c-11 -23 -79 -332 -74 -337 8 -8 78 10 82 21 8 20 -1 332
-8 316z"/>
<path d="M454 3484 c-104 -38 -166 -130 -168 -248 -1 -90 16 -138 67 -194 56
-60 104 -83 180 -84 105 -2 184 53 234 161 22 46 25 63 21 125 -5 77 -21 116
-70 171 -63 72 -177 102 -264 69z"/>
<path d="M1478 3486 c-47 -18 -85 -44 -92 -61 -9 -23 59 -148 108 -198 60 -62
135 -96 225 -104 l69 -6 11 39 c34 123 -23 260 -133 316 -50 26 -139 32 -188
14z"/>
<path d="M4545 3488 c-88 -32 -161 -116 -172 -195 -7 -51 47 -236 79 -270 63
-69 188 -86 279 -37 188 103 182 392 -10 489 -42 21 -136 28 -176 13z"/>
<path d="M0 2565 l0 -640 111 3 c74 2 111 7 114 15 2 7 11 37 19 68 27 97 115
183 215 213 l46 13 3 331 2 330 -32 7 c-103 23 -203 114 -232 212 -10 32 -19
63 -21 70 -3 8 -40 13 -114 15 l-111 3 0 -640z"/>
<path d="M4921 3153 c-29 -113 -115 -208 -218 -239 -26 -8 -51 -20 -55 -27
-10 -15 -10 -628 0 -642 4 -6 26 -16 49 -23 103 -30 189 -121 220 -234 l16
-58 94 0 93 0 0 635 0 635 -94 0 -94 0 -11 -47z"/>
<path d="M3387 3123 c-16 -15 -5 -46 31 -85 106 -118 290 -105 379 26 18 27
30 52 27 57 -6 10 -427 12 -437 2z"/>
<path d="M456 2165 c-56 -20 -105 -63 -139 -125 -28 -48 -31 -63 -31 -134 0
-91 19 -140 76 -196 74 -75 198 -93 289 -43 84 45 138 138 139 234 1 188 -170
323 -334 264z"/>
<path d="M4536 2165 c-59 -21 -106 -65 -140 -130 -73 -138 -17 -314 119 -376
57 -26 156 -25 212 2 115 55 170 203 126 338 -44 136 -188 212 -317 166z"/>
<path d="M0 1245 l0 -640 112 5 112 5 11 45 c37 140 95 197 263 255 9 3 12 78
12 330 l0 325 -22 9 c-13 5 -43 16 -68 25 -53 18 -130 90 -156 144 -9 20 -22
57 -29 82 l-11 45 -112 5 -112 5 0 -640z"/>
<path d="M4924 1853 c-12 -58 -37 -116 -68 -156 -35 -46 -127 -107 -162 -107
-53 0 -54 -6 -54 -343 0 -172 4 -317 8 -323 4 -7 26 -17 49 -23 101 -27 189
-120 220 -233 l16 -58 94 0 93 0 0 635 0 635 -95 0 -95 0 -6 -27z"/>
<path d="M1495 1865 c-5 -2 -27 -6 -47 -9 -45 -8 -98 -55 -98 -88 0 -13 13
-38 30 -56 105 -115 321 -88 390 48 11 22 20 41 20 43 0 8 -102 46 -150 57
-43 9 -124 12 -145 5z"/>
<path d="M3390 1798 c0 -48 4 -58 33 -88 94 -97 269 -94 357 6 44 51 40 68
-27 101 -55 26 -67 28 -210 32 l-153 3 0 -54z"/>
<path d="M816 1767 c-36 -74 -102 -140 -162 -162 -27 -9 -59 -21 -72 -26 l-22
-9 2 -326 3 -327 50 -16 c120 -39 193 -118 220 -236 11 -50 12 -50 54 -53 53
-4 57 0 158 134 43 57 81 104 85 104 4 0 35 -18 69 -40 73 -47 92 -49 115 -14
24 35 99 85 159 105 48 15 50 17 53 57 4 49 4 48 -203 132 -232 93 -313 145
-390 250 -20 27 -47 76 -60 109 -31 76 -49 225 -37 309 5 34 8 62 7 62 -2 0
-14 -24 -29 -53z"/>
<path d="M4347 1605 c-3 -69 -14 -150 -25 -190 -36 -134 -119 -256 -221 -326
-28 -19 -51 -37 -51 -40 -1 -20 228 -434 240 -434 8 0 17 16 22 38 9 41 47
121 75 153 32 37 89 74 144 93 l54 18 0 329 0 329 -60 19 c-46 15 -72 31 -116
75 l-56 57 -6 -121z"/>
<path d="M3811 1669 c-25 -32 -82 -65 -145 -83 l-41 -12 -3 -103 -3 -104 42 6
c69 9 130 47 164 102 26 42 30 59 33 137 4 99 -5 110 -47 57z"/>
<path d="M3390 1505 l0 -146 88 3 87 3 0 105 0 105 -52 17 c-29 9 -66 26 -82
37 -16 12 -32 21 -35 21 -3 0 -6 -65 -6 -145z"/>
<path d="M1582 943 c2 -22 11 -29 56 -43 58 -19 69 -9 30 27 -53 48 -91 55
-86 16z"/>
<path d="M3390 895 c0 -30 3 -55 6 -55 3 0 19 9 35 21 16 11 52 28 81 38 83
28 70 45 -34 49 l-88 3 0 -56z"/>
<path d="M485 851 c-72 -18 -134 -66 -170 -133 -25 -46 -29 -64 -29 -133 0
-94 21 -142 85 -205 159 -154 419 -27 419 204 0 79 -25 140 -80 195 -66 66
-145 91 -225 72z"/>
<path d="M1487 846 c-83 -31 -154 -94 -125 -113 22 -13 203 -16 241 -4 47 16
87 48 87 71 0 41 -134 72 -203 46z"/>
<path d="M2514 850 c-64 -20 -128 -74 -159 -135 -71 -139 -16 -314 121 -380
62 -31 157 -27 217 8 55 33 111 104 128 164 25 90 -4 207 -67 274 -55 58 -169
90 -240 69z"/>
<path d="M3545 851 c-45 -11 -76 -29 -117 -69 l-38 -36 0 -161 0 -162 36 -36
c54 -53 99 -72 174 -72 53 0 74 5 111 27 54 32 99 81 99 108 0 19 -169 370
-191 396 -12 15 -27 16 -74 5z"/>
<path d="M4547 846 c-131 -47 -208 -185 -178 -319 40 -179 229 -269 373 -178
150 95 172 309 45 433 -70 70 -158 93 -240 64z"/>
<path d="M0 283 l0 -283 2560 0 2560 0 0 280 0 280 -93 0 -94 0 -16 -58 c-31
-113 -119 -206 -220 -233 -23 -6 -45 -16 -49 -23 -4 -6 -8 -60 -8 -119 0 -107
0 -108 -22 -105 -22 3 -23 8 -28 117 l-5 114 -54 18 c-29 10 -60 24 -67 30
-11 9 -14 8 -14 -5 0 -14 -28 -16 -275 -16 l-275 0 -25 50 -25 50 -56 -45
c-30 -25 -56 -45 -57 -45 -1 0 -27 -9 -57 -19 l-55 -18 -3 -117 c-3 -115 -3
-117 -25 -114 -21 3 -22 9 -27 117 l-5 114 -53 18 c-29 10 -65 27 -81 38 -36
26 -39 26 -43 -1 l-3 -23 -247 -3 -248 -2 0 117 0 118 -35 -72 c-46 -94 -123
-158 -212 -178 l-33 -7 0 -106 c0 -114 -6 -136 -36 -130 -17 3 -19 15 -22 119
l-3 115 -50 13 c-47 12 -127 63 -157 100 -24 30 -62 111 -70 148 l-8 38 -73 3
-74 3 -51 -57 c-99 -109 -228 -184 -391 -227 l-90 -24 -3 -116 c-3 -117 -3
-117 -27 -117 -24 0 -24 0 -27 117 l-3 118 -95 12 c-186 24 -367 101 -488 208
-30 27 -52 55 -52 66 0 15 -6 20 -22 17 -17 -2 -24 -14 -33 -53 -30 -129 -95
-192 -262 -250 -10 -3 -13 -37 -13 -120 0 -115 0 -116 -22 -113 -22 3 -23 7
-26 119 l-3 115 -47 12 c-26 7 -70 29 -99 48 -75 51 -96 86 -138 231 -3 8 -40
13 -114 15 l-111 3 0 -282z"/>
</g>
</svg>
